<svg preserveAspectRatio="none" width="325.949" height="214.678" viewBox="-0.000 0.000 325.949 214.678" fill="none" xmlns="http://www.w3.org/2000/svg"><path d="M62.7959 125.592C97.4772 125.592 125.592 97.4772 125.592 62.796C125.592 28.1147 97.4772 0 62.7959 0C28.1147 0 0 28.1147 0 62.796C0 97.4772 28.1147 125.592 62.7959 125.592Z" fill="#000000" transform="translate(26.536 73.150)"/><path d="M125.592 62.796L112.616 62.796C112.616 90.3106 90.3106 112.616 62.7959 112.616L62.7959 125.592L62.7959 138.568C104.644 138.568 138.568 104.644 138.568 62.796L125.592 62.796ZM62.7959 125.592L62.7959 112.616C35.2813 112.616 12.9764 90.3106 12.9764 62.796L0 62.796L-12.9764 62.796C-12.9764 104.644 20.948 138.568 62.7959 138.568L62.7959 125.592ZM0 62.796L12.9764 62.796C12.9764 35.2813 35.2813 12.9764 62.7959 12.9764L62.7959 0L62.7959 -12.9764C20.9481 -12.9764 -12.9764 20.9481 -12.9764 62.796L0 62.796ZM62.7959 0L62.7959 12.9764C90.3106 12.9764 112.616 35.2814 112.616 62.796L125.592 62.796L138.568 62.796C138.568 20.9481 104.644 -12.9764 62.7959 -12.9764L62.7959 0Z" fill="#000000" transform="translate(26.536 73.150)"/><path d="M11.208 0C1.40369 14.1635 -2.43152 32.1333 1.55751 49.6562L30.2977 48.57L9.07894 68.3037C18.1432 83.3274 32.9122 93.5211 49.3874 97.1449C60.9027 80.5111 64.19 58.6291 56.236 38.3812C48.282 18.1381 30.9754 4.34468 11.2129 0L11.208 0Z" fill="#000000" transform="translate(91.543 74.601)"/><path d="M11.208 0L11.208 -12.9764L4.40861 -12.9764L0.538599 -7.38571L11.208 0ZM1.55751 49.6562L-11.0951 52.5365L-8.7064 63.0297L2.04757 62.6233L1.55751 49.6562ZM30.2977 48.57L39.1348 58.0722L64.7135 34.2837L29.8076 35.6029L30.2977 48.57ZM9.07894 68.3037L0.241822 58.8015L-7.4777 65.9808L-2.03185 75.0071L9.07894 68.3037ZM49.3874 97.1449L46.5998 109.818L55.1016 111.688L60.0565 104.531L49.3874 97.1449ZM56.236 38.3812L68.3139 33.6366L68.3135 33.6356L56.236 38.3812ZM11.2129 0L13.9991 -12.6737L12.6224 -12.9764L11.2129 -12.9764L11.2129 0ZM11.208 0L0.538599 -7.38571C-11.2722 9.67626 -15.917 31.355 -11.0951 52.5365L1.55751 49.6562L14.2102 46.7759C11.054 32.9116 14.0796 18.6507 21.8775 7.38571L11.208 0ZM1.55751 49.6562L2.04757 62.6233L30.7878 61.5371L30.2977 48.57L29.8076 35.6029L1.06744 36.6891L1.55751 49.6562ZM30.2977 48.57L21.4606 39.0679L0.241822 58.8015L9.07894 68.3037L17.9161 77.8059L39.1348 58.0722L30.2977 48.57ZM9.07894 68.3037L-2.03185 75.0071C8.92549 93.1687 26.7538 105.453 46.5998 109.818L49.3874 97.1449L52.1749 84.4715C39.0706 81.5891 27.3608 73.4862 20.1897 61.6003L9.07894 68.3037ZM49.3874 97.1449L60.0565 104.531C73.9276 84.4943 77.9162 58.0806 68.3139 33.6366L56.236 38.3812L44.1581 43.1258C50.4638 59.1776 47.8777 76.5279 38.7182 89.7588L49.3874 97.1449ZM56.236 38.3812L68.3135 33.6356C58.7102 9.19518 37.8038 -7.44038 13.9991 -12.6737L11.2129 0L8.42662 12.6737C24.147 16.1297 37.8537 27.081 44.1585 43.1267L56.236 38.3812ZM11.2129 0L11.2129 -12.9764L11.208 -12.9764L11.208 0L11.208 12.9764L11.2129 12.9764L11.2129 0Z" fill="#000000" transform="translate(91.543 74.601)"/><path d="M65.8349 131.55C39.5794 131.55 14.7273 115.718 4.55767 89.8426C-8.70224 56.0993 7.96038 17.8527 41.7085 4.59278C58.0539 -1.83292 75.9276 -1.50611 92.0279 5.51074C108.128 12.5276 120.533 25.3934 126.958 41.7388C133.384 58.0842 133.057 75.9579 126.04 92.0582C119.024 108.159 106.158 120.568 89.8123 126.989C81.9448 130.084 73.8226 131.545 65.8397 131.545L65.8349 131.55ZM65.7724 5.92406C58.3759 5.92406 50.965 7.31301 43.8713 10.1005C13.1653 22.1685 -2.00259 56.9692 10.0654 87.6751C22.1334 118.386 56.9389 133.549 87.6448 121.481C102.52 115.637 114.227 104.347 120.614 89.6937C126.997 75.04 127.295 58.7811 121.451 43.9063C115.606 29.0316 104.317 17.324 89.6633 10.9368C81.9977 7.59657 73.8947 5.92406 65.7724 5.92406L65.7724 5.92406Z" fill="#000000" transform="translate(23.574 70.152)"/><path d="M65.8349 131.55L65.8349 144.526L71.1983 144.526L74.9966 140.739L65.8349 131.55ZM4.55767 89.8426L-7.51965 94.5886L-7.51944 94.5891L4.55767 89.8426ZM41.7085 4.59278L46.4539 16.6703L46.4561 16.6695L41.7085 4.59278ZM89.8123 126.989L85.0678 114.911L85.0618 114.913L89.8123 126.989ZM65.8397 131.545L65.8397 118.568L60.4763 118.568L56.6781 122.355L65.8397 131.545ZM43.8713 10.1005L39.1254 -1.97684L39.1247 -1.97658L43.8713 10.1005ZM10.0654 87.6751L22.1428 82.9292L22.1425 82.9286L10.0654 87.6751ZM87.6448 121.481L82.8996 109.403L82.8983 109.404L87.6448 121.481ZM120.614 89.6937L132.51 94.8786L132.511 94.8754L120.614 89.6937ZM89.6633 10.9368L94.8483 -0.958669L94.8469 -0.959296L89.6633 10.9368ZM65.8349 131.55L65.8349 118.573C44.72 118.573 24.783 105.829 16.6348 85.0961L4.55767 89.8426L-7.51944 94.5891C4.67154 125.608 34.4388 144.526 65.8349 144.526L65.8349 131.55ZM4.55767 89.8426L16.635 85.0967C5.99578 58.0224 19.3775 27.3089 46.4539 16.6703L41.7085 4.59278L36.9632 -7.48477C-3.45675 8.39653 -23.4003 54.1762 -7.51965 94.5886L4.55767 89.8426ZM41.7085 4.59278L46.4561 16.6695C59.5973 11.5034 73.8983 11.7646 86.8435 17.4064L92.0279 5.51074L97.2123 -6.38497C77.957 -14.7769 56.5105 -15.1692 36.9609 -7.4839L41.7085 4.59278ZM92.0279 5.51074L86.8435 17.4064C99.7892 23.0484 109.715 33.3429 114.882 46.4864L126.958 41.7388L139.035 36.9912C131.351 17.4439 116.467 2.00671 97.2123 -6.38497L92.0279 5.51074ZM126.958 41.7388L114.882 46.4864C120.048 59.6276 119.787 73.9286 114.145 86.8738L126.04 92.0582L137.936 97.2426C146.328 77.9873 146.72 56.5408 139.035 36.9912L126.958 41.7388ZM126.04 92.0582L114.145 86.8738C108.502 99.8215 98.2069 109.749 85.0678 114.911L89.8123 126.989L94.5569 139.067C114.109 131.386 129.545 116.496 137.936 97.2426L126.04 92.0582ZM89.8123 126.989L85.0618 114.913C78.7412 117.4 72.2333 118.568 65.8397 118.568L65.8397 131.545L65.8397 144.521C75.4118 144.521 85.1485 142.768 94.5629 139.064L89.8123 126.989ZM65.8397 131.545L56.6781 122.355L56.6733 122.36L65.8349 131.55L74.9966 140.739L75.0014 140.734L65.8397 131.545ZM65.7724 5.92406L65.7724 -7.0523C56.7442 -7.0523 47.7239 -5.35566 39.1254 -1.97684L43.8713 10.1005L48.6171 22.1779C54.2061 19.9817 60.0077 18.9004 65.7724 18.9004L65.7724 5.92406ZM43.8713 10.1005L39.1247 -1.97658C1.75025 12.7123 -16.7017 55.0443 -2.01167 92.4216L10.0654 87.6751L22.1425 82.9286C12.6965 58.8941 24.5804 31.6248 48.6178 22.1776L43.8713 10.1005ZM10.0654 87.6751L-2.01193 92.421C12.6775 129.803 55.0159 148.247 92.3913 133.558L87.6448 121.481L82.8983 109.404C58.8619 118.851 31.5893 106.969 22.1428 82.9292L10.0654 87.6751ZM87.6448 121.481L92.39 133.559C110.47 126.455 124.748 112.685 132.51 94.8786L120.614 89.6937L108.719 84.5087C103.706 96.0094 94.5694 104.818 82.8996 109.403L87.6448 121.481ZM120.614 89.6937L132.511 94.8754C140.267 77.0688 140.631 57.2393 133.528 39.1611L121.451 43.9063L109.373 48.6515C113.959 60.3229 113.727 73.0112 108.717 84.5119L120.614 89.6937ZM121.451 43.9063L133.528 39.1611C126.425 21.0814 112.655 6.80289 94.8483 -0.958669L89.6633 10.9368L84.4783 22.8322C95.9791 27.8452 104.788 36.9818 109.373 48.6515L121.451 43.9063ZM89.6633 10.9368L94.8469 -0.959296C85.5545 -5.00833 75.6877 -7.0523 65.7724 -7.0523L65.7724 5.92406L65.7724 18.9004C72.1017 18.9004 78.4408 20.2015 84.4798 22.8329L89.6633 10.9368ZM65.7724 5.92406" fill="#000000" transform="translate(23.574 70.152)"/><path d="M89.5719 0L89.5719 37.1412C89.5719 37.1412 38.9256 23.6362 0.102289 84.4088C0.102289 84.4088 -6.65024 27.01 89.5719 0Z" fill="#000000" transform="translate(0.000 0.000)"/><path d="M0 1.98184L2.26363 23.811C2.26363 23.811 50.3723 -3.24235 77.9494 49.9078C77.9494 49.9078 66.4726 -11.6962 0 1.98184L0 1.98184Z" fill="#000000" transform="translate(248.000 1.402)"/><path d="M62.7959 125.592C97.4772 125.592 125.592 97.4772 125.592 62.796C125.592 28.1147 97.4772 0 62.7959 0C28.1147 0 0 28.1147 0 62.796C0 97.4772 28.1147 125.592 62.7959 125.592Z" fill="#ffffff" transform="translate(26.536 73.150)"/><path d="M11.208 0C1.40369 14.1635 -2.43152 32.1333 1.55751 49.6562L30.2977 48.57L9.07894 68.3037C18.1432 83.3274 32.9122 93.5211 49.3874 97.1449C60.9027 80.5111 64.19 58.6291 56.236 38.3812C48.282 18.1381 30.9754 4.34468 11.2129 0L11.208 0Z" fill="#000000" transform="translate(91.543 74.601)"/><path d="M65.8349 131.55C39.5794 131.55 14.7273 115.718 4.55767 89.8426C-8.70224 56.0993 7.96038 17.8527 41.7085 4.59278C58.0539 -1.83292 75.9276 -1.50611 92.0279 5.51074C108.128 12.5276 120.533 25.3934 126.958 41.7388C133.384 58.0842 133.057 75.9579 126.04 92.0582C119.024 108.159 106.158 120.568 89.8123 126.989C81.9448 130.084 73.8226 131.545 65.8397 131.545L65.8349 131.55ZM65.7724 5.92406C58.3759 5.92406 50.965 7.31301 43.8713 10.1005C13.1653 22.1685 -2.00259 56.9692 10.0654 87.6751C22.1334 118.386 56.9389 133.549 87.6448 121.481C102.52 115.637 114.227 104.347 120.614 89.6937C126.997 75.04 127.295 58.7811 121.451 43.9063C115.606 29.0316 104.317 17.324 89.6633 10.9368C81.9977 7.59657 73.8947 5.92406 65.7724 5.92406L65.7724 5.92406Z" fill="#000000" transform="translate(23.574 70.152)"/><path d="M62.796 125.592C97.4772 125.592 125.592 97.4772 125.592 62.796C125.592 28.1147 97.4772 0 62.796 0C28.1147 0 0 28.1147 0 62.796C0 97.4772 28.1147 125.592 62.796 125.592Z" fill="#000000" transform="translate(175.985 73.150)"/><path d="M125.592 62.796L112.616 62.796C112.616 90.3106 90.3106 112.616 62.796 112.616L62.796 125.592L62.796 138.568C104.644 138.568 138.568 104.644 138.568 62.796L125.592 62.796ZM62.796 125.592L62.796 112.616C35.2814 112.616 12.9764 90.3106 12.9764 62.796L0 62.796L-12.9764 62.796C-12.9764 104.644 20.9481 138.568 62.796 138.568L62.796 125.592ZM0 62.796L12.9764 62.796C12.9764 35.2814 35.2814 12.9764 62.796 12.9764L62.796 0L62.796 -12.9764C20.9481 -12.9764 -12.9764 20.9481 -12.9764 62.796L0 62.796ZM62.796 0L62.796 12.9764C90.3106 12.9764 112.616 35.2813 112.616 62.796L125.592 62.796L138.568 62.796C138.568 20.9481 104.644 -12.9764 62.796 -12.9764L62.796 0Z" fill="#000000" transform="translate(175.985 73.150)"/><path d="M11.208 0C1.40369 14.1635 -2.43152 32.1333 1.55751 49.6562L30.2977 48.57L9.079 68.3037C18.1432 83.3274 32.9122 93.5211 49.3874 97.1449C60.9027 80.5111 64.1901 58.6291 56.236 38.3812C48.282 18.1381 30.9754 4.34468 11.2129 0L11.208 0Z" fill="#000000" transform="translate(240.992 74.601)"/><path d="M11.208 0L11.208 -12.9764L4.40861 -12.9764L0.538599 -7.38571L11.208 0ZM1.55751 49.6562L-11.0951 52.5365L-8.7064 63.0297L2.04757 62.6233L1.55751 49.6562ZM30.2977 48.57L39.1348 58.0722L64.7134 34.2837L29.8076 35.6029L30.2977 48.57ZM9.079 68.3037L0.241868 58.8015L-7.47764 65.9808L-2.03179 75.0071L9.079 68.3037ZM49.3874 97.1449L46.5998 109.818L55.1017 111.688L60.0566 104.531L49.3874 97.1449ZM56.236 38.3812L68.3139 33.6366L68.3135 33.6356L56.236 38.3812ZM11.2129 0L13.9991 -12.6737L12.6224 -12.9764L11.2129 -12.9764L11.2129 0ZM11.208 0L0.538599 -7.38571C-11.2722 9.67626 -15.917 31.355 -11.0951 52.5365L1.55751 49.6562L14.2102 46.7759C11.054 32.9116 14.0796 18.6507 21.8775 7.38571L11.208 0ZM1.55751 49.6562L2.04757 62.6233L30.7878 61.5371L30.2977 48.57L29.8076 35.6029L1.06744 36.6891L1.55751 49.6562ZM30.2977 48.57L21.4606 39.0679L0.241868 58.8015L9.079 68.3037L17.9161 77.8059L39.1348 58.0722L30.2977 48.57ZM9.079 68.3037L-2.03179 75.0071C8.92555 93.1687 26.7538 105.453 46.5998 109.818L49.3874 97.1449L52.175 84.4715C39.0707 81.5891 27.3609 73.4862 20.1898 61.6003L9.079 68.3037ZM49.3874 97.1449L60.0566 104.531C73.9277 84.4943 77.9163 58.0806 68.3139 33.6366L56.236 38.3812L44.1582 43.1258C50.4639 59.1776 47.8778 76.5279 38.7182 89.7588L49.3874 97.1449ZM56.236 38.3812L68.3135 33.6356C58.7103 9.19516 37.8038 -7.44038 13.9991 -12.6737L11.2129 0L8.42662 12.6737C24.147 16.1297 37.8538 27.081 44.1586 43.1267L56.236 38.3812ZM11.2129 0L11.2129 -12.9764L11.208 -12.9764L11.208 0L11.208 12.9764L11.2129 12.9764L11.2129 0Z" fill="#000000" transform="translate(240.992 74.601)"/><path d="M65.8349 131.55C39.5794 131.55 14.7273 115.718 4.55767 89.8426C-8.70224 56.0993 7.96038 17.8527 41.7085 4.59278C58.0539 -1.83292 75.9276 -1.50611 92.0279 5.51074C108.128 12.5276 120.533 25.3934 126.958 41.7388C133.384 58.0842 133.057 75.9579 126.04 92.0582C119.024 108.159 106.158 120.568 89.8123 126.989C81.9448 130.084 73.8226 131.545 65.8397 131.545L65.8349 131.55ZM65.7724 5.92406C58.3759 5.92406 50.965 7.31301 43.8713 10.1005C13.1653 22.1685 -2.00256 56.9692 10.0655 87.6751C22.1335 118.386 56.9389 133.549 87.6448 121.481C102.52 115.637 114.227 104.347 120.614 89.6937C126.997 75.04 127.295 58.7811 121.451 43.9063C115.606 29.0316 104.317 17.324 89.6634 10.9368C81.9977 7.59657 73.8947 5.92406 65.7724 5.92406L65.7724 5.92406Z" fill="#000000" transform="translate(173.023 70.152)"/><path d="M65.8349 131.55L65.8349 144.526L71.1983 144.526L74.9966 140.739L65.8349 131.55ZM4.55767 89.8426L-7.51965 94.5886L-7.51944 94.5891L4.55767 89.8426ZM41.7085 4.59278L46.4539 16.6703L46.4561 16.6695L41.7085 4.59278ZM89.8123 126.989L85.0678 114.911L85.0618 114.913L89.8123 126.989ZM65.8397 131.545L65.8397 118.568L60.4763 118.568L56.6781 122.355L65.8397 131.545ZM43.8713 10.1005L39.1254 -1.97684L39.1247 -1.97658L43.8713 10.1005ZM10.0655 87.6751L22.1428 82.9292L22.1425 82.9286L10.0655 87.6751ZM87.6448 121.481L82.8996 109.403L82.8983 109.404L87.6448 121.481ZM120.614 89.6937L132.51 94.8786L132.511 94.8754L120.614 89.6937ZM89.6634 10.9368L94.8484 -0.958669L94.8469 -0.959296L89.6634 10.9368ZM65.8349 131.55L65.8349 118.573C44.72 118.573 24.783 105.829 16.6348 85.0961L4.55767 89.8426L-7.51944 94.5891C4.67154 125.608 34.4388 144.526 65.8349 144.526L65.8349 131.55ZM4.55767 89.8426L16.635 85.0967C5.99578 58.0224 19.3775 27.3089 46.4539 16.6703L41.7085 4.59278L36.9632 -7.48477C-3.45675 8.39653 -23.4003 54.1762 -7.51965 94.5886L4.55767 89.8426ZM41.7085 4.59278L46.4561 16.6695C59.5973 11.5034 73.8983 11.7646 86.8435 17.4064L92.0279 5.51074L97.2123 -6.38497C77.957 -14.7769 56.5105 -15.1692 36.9609 -7.4839L41.7085 4.59278ZM92.0279 5.51074L86.8435 17.4064C99.7892 23.0484 109.715 33.3429 114.882 46.4864L126.958 41.7388L139.035 36.9912C131.351 17.4439 116.467 2.00671 97.2123 -6.38497L92.0279 5.51074ZM126.958 41.7388L114.882 46.4864C120.048 59.6276 119.787 73.9286 114.145 86.8738L126.04 92.0582L137.936 97.2426C146.328 77.9873 146.72 56.5408 139.035 36.9912L126.958 41.7388ZM126.04 92.0582L114.145 86.8738C108.502 99.8215 98.2069 109.749 85.0678 114.911L89.8123 126.989L94.5569 139.067C114.109 131.386 129.545 116.496 137.936 97.2426L126.04 92.0582ZM89.8123 126.989L85.0618 114.913C78.7412 117.4 72.2333 118.568 65.8397 118.568L65.8397 131.545L65.8397 144.521C75.4118 144.521 85.1485 142.768 94.5629 139.064L89.8123 126.989ZM65.8397 131.545L56.6781 122.355L56.6733 122.36L65.8349 131.55L74.9966 140.739L75.0014 140.734L65.8397 131.545ZM65.7724 5.92406L65.7724 -7.0523C56.7442 -7.0523 47.7239 -5.35566 39.1254 -1.97684L43.8713 10.1005L48.6171 22.1779C54.2061 19.9817 60.0077 18.9004 65.7724 18.9004L65.7724 5.92406ZM43.8713 10.1005L39.1247 -1.97658C1.75024 12.7123 -16.7017 55.0443 -2.01165 92.4216L10.0655 87.6751L22.1425 82.9286C12.6965 58.8941 24.5804 31.6248 48.6178 22.1776L43.8713 10.1005ZM10.0655 87.6751L-2.0119 92.421C12.6776 129.803 55.0159 148.247 92.3913 133.558L87.6448 121.481L82.8983 109.404C58.8619 118.851 31.5894 106.969 22.1428 82.9292L10.0655 87.6751ZM87.6448 121.481L92.39 133.559C110.47 126.455 124.748 112.685 132.51 94.8786L120.614 89.6937L108.719 84.5087C103.706 96.0094 94.5694 104.818 82.8996 109.403L87.6448 121.481ZM120.614 89.6937L132.511 94.8754C140.267 77.0688 140.631 57.2393 133.528 39.1611L121.451 43.9063L109.373 48.6515C113.959 60.3229 113.727 73.0112 108.717 84.5119L120.614 89.6937ZM121.451 43.9063L133.528 39.1611C126.425 21.0814 112.655 6.80289 94.8484 -0.958669L89.6634 10.9368L84.4784 22.8322C95.9791 27.8452 104.788 36.9818 109.373 48.6515L121.451 43.9063ZM89.6634 10.9368L94.8469 -0.959296C85.5545 -5.00833 75.6877 -7.0523 65.7724 -7.0523L65.7724 5.92406L65.7724 18.9004C72.1017 18.9004 78.4409 20.2015 84.4798 22.8329L89.6634 10.9368ZM65.7724 5.92406" fill="#000000" transform="translate(173.023 70.152)"/><path d="M62.796 125.592C97.4772 125.592 125.592 97.4772 125.592 62.796C125.592 28.1147 97.4772 0 62.796 0C28.1147 0 0 28.1147 0 62.796C0 97.4772 28.1147 125.592 62.796 125.592Z" fill="#ffffff" transform="translate(175.985 73.150)"/><path d="M11.208 0C1.40369 14.1635 -2.43152 32.1333 1.55751 49.6562L30.2977 48.57L9.079 68.3037C18.1432 83.3274 32.9122 93.5211 49.3874 97.1449C60.9027 80.5111 64.1901 58.6291 56.236 38.3812C48.282 18.1381 30.9754 4.34468 11.2129 0L11.208 0Z" fill="#000000" transform="translate(240.992 74.601)"/><path d="M65.8349 131.55C39.5794 131.55 14.7273 115.718 4.55767 89.8426C-8.70224 56.0993 7.96038 17.8527 41.7085 4.59278C58.0539 -1.83292 75.9276 -1.50611 92.0279 5.51074C108.128 12.5276 120.533 25.3934 126.958 41.7388C133.384 58.0842 133.057 75.9579 126.04 92.0582C119.024 108.159 106.158 120.568 89.8123 126.989C81.9448 130.084 73.8226 131.545 65.8397 131.545L65.8349 131.55ZM65.7724 5.92406C58.3759 5.92406 50.965 7.31301 43.8713 10.1005C13.1653 22.1685 -2.00256 56.9692 10.0655 87.6751C22.1335 118.386 56.9389 133.549 87.6448 121.481C102.52 115.637 114.227 104.347 120.614 89.6937C126.997 75.04 127.295 58.7811 121.451 43.9063C115.606 29.0316 104.317 17.324 89.6634 10.9368C81.9977 7.59657 73.8947 5.92406 65.7724 5.92406L65.7724 5.92406Z" fill="#000000" transform="translate(173.023 70.152)"/></svg>